# xmcd CD database file
#
# Track frame offsets:
#	150
#	8892
#	24690
#	35782
#	45167
#	55407
#	65700
#	78072
#	90330
#	100545
#
# Disc length: 1518 seconds
#
# Revision: 1
# Processed by: cddbd v1.4PL0 Copyright (c) Steve Scherf et al.
# Submitted via: CDex 1.50beta9
#
DISCID=6f05ec0a
DTITLE=Chiffons - They're So Fine
DYEAR=1992
DGENRE=Blues
TTITLE0=He's So Fine
TTITLE1=My Sweet Lord
TTITLE2=Sweet Talkin' Guy
TTITLE3=My Boyfriend's Back
TTITLE4=I Wonder Why
TTITLE5=It's My Party
TTITLE6=My Block
TTITLE7=Just For Tonight
TTITLE8=Open Your Eyes
TTITLE9=Up On The Bridge
EXTD=YEAR: 1992
EXTT0=
EXTT1=
EXTT2=
EXTT3=
EXTT4=
EXTT5=
EXTT6=
EXTT7=
EXTT8=
EXTT9=
PLAYORDER=
